<?xml version="1.0" standalone="no"?><!DOCTYPE svg PUBLIC "-//W3C//DTD SVG 1.1//EN" "http://www.w3.org/Graphics/SVG/1.1/DTD/svg11.dtd"><svg t="1762745970270" class="icon" viewBox="0 0 1073 1024" version="1.1" xmlns="http://www.w3.org/2000/svg" p-id="4572" xmlns:xlink="http://www.w3.org/1999/xlink" width="268.25" height="256"><path d="M312.233696 0.002359a22.992699 22.992699 0 0 0-4.86507 0.536835l0.167761-0.033552a23.726653 23.726653 0 1 0 28.182806 18.011245l0.033552 0.167761A23.727702 23.727702 0 0 0 312.233696 0.002359zM601.003914 28.553191h-0.167761a44.085503 44.085503 0 0 0-23.015766 6.475576l0.201314-0.104851a44.149462 44.149462 0 1 0 22.982213-6.374919z m-135.511074 100.048488A224.835438 224.835438 0 0 0 256.674386 273.908949c-22.747348 3.086803-45.159174 10.703154-65.356554 24.626272-66.732195 46.098636-84.379607 135.947253-42.038819 204.088641-57.472834 52.606716-70.75846 140.278633-27.075583 207.946096 25.89811 40.126343 66.564434 64.282884 110.280863 71.463056a172.852584 172.852584 0 0 0 30.665669 94.545926c54.757202 79.212568 163.390862 99.107978 242.636982 44.387474 3.019699-2.113789 5.368353-4.730861 8.220291-6.978859 44.152608 39.423844 110.512583 45.86377 161.378777 10.736706 27.142687-18.754635 44.421026-46.029434 51.970273-75.657082 39.790821 1.442745 80.315596-8.656469 115.582111-33.013275 84.614473-58.4448 107.328269-172.751928 53.211704-258.981101 43.448012-36.636913 52.775525-100.718484 19.39737-148.024999-14.896132-21.10329-35.898765-34.925751-58.880978-41.770401A198.464452 198.464452 0 0 0 821.975606 238.745188c-52.739876-76.294574-149.097621-104.30857-232.405655-74.080129a226.311736 226.311736 0 0 0-123.199511-36.068623h-0.872358zM214.838978 165.104383a33.559547 33.559547 0 0 0-19.056606 6.106502l0.104851-0.067104a33.97161 33.97161 0 1 0 47.172307 8.52226l0.067104 0.104851a33.953785 33.953785 0 0 0-27.94794-14.694818h-0.369074z m715.464124 106.086838a37.692759 37.692759 0 0 0-21.170395 6.815292l0.134209-0.067105a37.788174 37.788174 0 1 0 52.54066 9.461723l0.067104 0.134209a37.832211 37.832211 0 0 0-31.135399-16.338877h-0.399481z m-364.594013 45.964427a62.37565 62.37565 0 0 1 8.119634 0.603939c10.233423 1.509849 16.338876 5.334801 20.197381 8.388052 7.515694 6.005845 12.178403 10.799617 19.292519 17.546756 10.703154 10.170513 18.486218 3.992713 23.854571 0.872358 9.293961-5.401905 16.506638-9.763692 44.051951-9.26041 28.317015 0.503283 60.961215 10.567897 67.705209 58.880979 7.515694 53.647883-87.936141 191.876686-81.259252 255.99076 4.730861 45.190629 81.154402 13.35273 87.634171 54.620896 8.388052 53.547226-95.51894 33.650767-119.272854 22.0092-37.207301-18.251352-59.82044-59.954649-50.158453-101.087558 7.213725-30.799878 76.059709-156.480156 78.637986-175.805179 2.621266-19.694097-7.918321-21.338155-14.493505-21.673677-8.492902-0.436179-15.203344 3.623638-23.519049 16.171115-7.582799 11.440254-93.136734 182.754679-100.551772 196.77426-13.285626 25.028898-29.961073 31.035792-46.736127 30.128833-24.492063-1.274984-35.697452-14.325744-32.141967-37.911897 2.080237-13.856013 56.331011-136.383432 59.149396-155.507141 1.744715-11.809328-0.60394-24.391406-12.312611-30.397252s-25.565733 3.153907-29.692655 10.132767c-5.737427 9.629484-82.668445 210.529616-90.855184 225.428893-14.154837 25.767047-29.122267 33.986289-51.534093 35.026407-53.077495 2.516416-92.398585-41.101454-75.053142-94.61303 7.75056-23.821019 58.880978-204.491267 84.748681-250.488198 17.378995-30.900534 65.658524-54.417486 99.176131-39.92503 17.345443 7.515694 41.401327 19.593441 48.480843 22.713796 16.372429 7.247277 33.986289-12.413268 40.898044-18.419113s13.486939-12.379716 21.942095-16.003355c6.307815-2.717729 15.33231-4.227578 23.787466-4.194026z m486.752357 91.995958a22.459009 22.459009 0 0 0-4.328234 0.536836l0.134208-0.033553A20.917704 20.917704 0 0 0 1031.730376 430.087135a20.371432 20.371432 0 0 0 0.503283 4.529548l-0.033552-0.134209a21.028846 21.028846 0 0 0 20.532902 16.54019 22.551277 22.551277 0 0 0 4.529548-0.469731l-0.134208 0.033552a20.933432 20.933432 0 0 0-4.465589-41.396084h-0.201314zM45.070051 445.385893H44.666376a44.518537 44.518537 0 0 0-36.702969 19.258967l-0.104851 0.134209a44.715656 44.715656 0 1 0 62.202647-11.541959 44.185112 44.185112 0 0 0-24.961794-7.851217h-0.033552z m952.602738 93.673569a28.111507 28.111507 0 0 0-5.871637 0.637492l0.201314-0.033552a28.099974 28.099974 0 0 0-22.143409 27.411105 28.456466 28.456466 0 0 0 0.671044 6.140054l-0.033552-0.201314a28.099974 28.099974 0 0 0 33.584711 21.539469l-0.201313 0.033552a28.111507 28.111507 0 0 0-5.938741-55.59391h-0.268417z m-815.947743 272.766864a22.094129 22.094129 0 0 0-4.26113 0.536835l0.134209-0.033552a20.778253 20.778253 0 1 0 25.096002 20.331589 20.451119 20.451119 0 0 0-0.503283-4.5631l0.033552 0.134209a20.8506 20.8506 0 0 0-20.365141-16.439533h-0.201313z m611.761591 69.382819a46.520135 46.520135 0 0 0-26.27033 8.388052l0.167761-0.104851a46.856706 46.856706 0 1 0 26.736915-8.320947h-0.60394z m-283.539219 85.017099a28.566559 28.566559 0 0 0-16.171116 5.200593l0.104851-0.067105a28.86748 28.86748 0 0 0-7.280829 40.294104l-0.067105-0.10485a28.854898 28.854898 0 0 0 40.262649 7.247276l-0.104851 0.067105a28.863286 28.863286 0 0 0 12.477228-23.753915 28.553977 28.553977 0 0 0-5.200593-16.506637l0.067105 0.104851a28.879014 28.879014 0 0 0-23.787467-12.477228h-0.30197z" fill="#ED1C40" p-id="4573"></path></svg>